<svg width="26px" height="25px" viewBox="0 0 26 25" version="1.1" xmlns="http://www.w3.org/2000/svg" xmlns:xlink="http://www.w3.org/1999/xlink">
    <g id="Page-1" stroke="none" stroke-width="1" fill="none" fill-rule="evenodd">
        <g id="Group" fill-rule="nonzero">
            <g id="pdf">
                <path d="M1.714,0 L18.28,0 L26,7.69 L26,22.714 C26,23.6606161 25.2326161,24.428 24.286,24.428 L1.714,24.428 C0.767383939,24.428 0,23.6606161 0,22.714 L0,1.714 C0,0.767383939 0.767383939,0 1.714,0 Z" id="Path" fill="#9CC450"></path>
                <path d="M25.975,7.714 L20,7.714 C19.0536125,7.71344833 18.2865517,6.94638746 18.286,6 L18.286,0.017 L25.975,7.714 Z" id="Path" fill="#637E30"></path>
            </g>
            <g id="image" transform="translate(5.000000, 8.000000)" fill="#FFFFFF">
                <path d="M7.49994274,6 C8.32700751,6 9,5.32712206 9,4.50005727 C9,3.67287794 8.32700751,3 7.49994274,3 C6.67287791,3 6,3.67287794 6,4.50005727 C6,5.32712206 6.67287791,6 7.49994274,6 L7.49994274,6 Z M7.49994274,3.87975867 C7.84199474,3.87975867 8.12024132,4.15800528 8.12024132,4.50005727 C8.12024132,4.84199472 7.84199474,5.12024133 7.49994274,5.12024133 C7.15800526,5.12024133 6.87975868,4.84199472 6.87975868,4.50005727 C6.87975868,4.15800528 7.15800526,3.87975867 7.49994274,3.87975867 Z" id="Shape"></path>
                <path d="M16.3792572,0 L0.620742781,0 C0.278465279,0 0,0.267386632 0,0.596046739 L0,13.4039532 C0,13.7326134 0.278465279,14 0.620742781,14 L16.3792572,14 C16.7215347,14 17,13.7326134 17,13.4039532 L17,0.596046739 C17,0.267386632 16.7215347,0 16.3792572,0 Z M16.0039062,0.956464496 L16.0039062,8.52548614 L12.8711395,5.51723094 C12.6668625,5.32145461 12.3347016,5.32157914 12.1305542,5.51760456 L7.69988252,9.77200347 L4.86970518,7.05454835 C4.77074433,6.95940006 4.63909912,6.90696888 4.49902344,6.90696888 C4.35907745,6.90696888 4.22756196,6.95927553 4.12860107,7.05429929 L0.99609375,10.0621809 L0.99609375,0.956464496 L16.0039062,0.956464496 Z M0.99609375,13.0435355 L0.99609375,11.414806 L4.49902344,8.05123916 L7.32907104,10.7686943 C7.42816162,10.8638426 7.55980683,10.9163983 7.69988252,10.9163983 C7.83969878,10.9163983 7.97134399,10.8639671 8.07017519,10.7689434 L12.5009766,6.5144199 L16.0040359,9.87811125 L16.0040359,13.0435355 L0.99609375,13.0435355 Z" id="Shape"></path>
            </g>
        </g>
    </g>
</svg>